# xmcd
#
# Track frame offsets:
#	217
#	23775
#	37105
#	46190
#	62112
#	70375
#	92120
#	102722
#	111545
#	121512
#	133012
#	155045
#	167300
#	179407
#	194980
#	210097
#	224470
#	240850
#	247272
#	262010
#	271655
#	283965
#	297135
#
# Disc length: 4051 seconds
# Revision: 0
# Processed by: cddbd v1.5.2PL0 Copyright (c) Steve Scherf et al.
# Submitted via: dBpowerAMP V12.0
#
DISCID=660fd117
DTITLE=The Johnson Mountain Boys - At The Old Schoolhouse
DYEAR=1989
DGENRE=Bluegrass
TTITLE0=Intro - Black Mountain Blues
TTITLE1=Let the Whole World Talk
TTITLE2=Long Journey Home
TTITLE3=Bluest Man in Town
TTITLE4=John Henry, the Steel Driving Man
TTITLE5=Weathered Gray Stone
TTITLE6=Unwanted Love
TTITLE7=Ricestrow
TTITLE8=Waltz Across Texas
TTITLE9=Five Speed
TTITLE10=Dream of a Miner's Child
TTITLE11=Georgia Stomp
TTITLE12=Sweetest Gift
TTITLE13=I've Found a Hiding Place
TTITLE14=With Body and Soul
TTITLE15=Orange Blossom Special
TTITLE16=Get Down on Your Knees and Pray
TTITLE17=Going to Georgia
TTITLE18=Now Just Suppose
TTITLE19=Don't You Call My Name
TTITLE20=Do You Call That Religion
TTITLE21=Daniel Prayed
TTITLE22=Wake Up Susan
EXTD=
EXTT0=
EXTT1=
EXTT2=
EXTT3=
EXTT4=
EXTT5=
EXTT6=
EXTT7=
EXTT8=
EXTT9=
EXTT10=
EXTT11=
EXTT12=
EXTT13=
EXTT14=
EXTT15=
EXTT16=
EXTT17=
EXTT18=
EXTT19=
EXTT20=
EXTT21=
EXTT22=
PLAYORDER=
